<?xml version="1.0" standalone="no"?>
<!DOCTYPE svg PUBLIC "-//W3C//DTD SVG 20010904//EN"
 "http://www.w3.org/TR/2001/REC-SVG-20010904/DTD/svg10.dtd">
<svg version="1.0" xmlns="http://www.w3.org/2000/svg"
 width="281.000000pt" height="179.000000pt" viewBox="0 0 281.000000 179.000000"
 preserveAspectRatio="xMidYMid meet">

<g transform="translate(0.000000,179.000000) scale(0.100000,-0.100000)"
fill="#000000" stroke="none">
<path d="M482 1053 l-43 -58 246 -3 c135 -1 245 -5 245 -8 0 -3 -13 -25 -30
-48 -16 -24 -26 -46 -23 -50 4 -3 52 -6 109 -6 l102 0 36 49 c39 53 44 77 21
120 -28 55 -66 61 -358 61 l-263 0 -42 -57z"/>
<path d="M1261 1001 c-45 -61 -81 -112 -81 -115 0 -4 135 -6 300 -6 l299 0 77
103 c43 56 81 108 87 115 7 9 -17 12 -116 12 l-125 0 -47 -65 -46 -65 -55 0
c-29 0 -54 3 -54 6 0 3 21 32 46 65 l45 59 -125 0 -124 0 -81 -109z"/>
<path d="M1959 1008 c-41 -57 -79 -109 -83 -115 -6 -10 21 -13 123 -13 l129 0
81 110 c45 61 81 112 81 115 0 3 -58 5 -128 5 l-128 0 -75 -102z"/>
<path d="M492 848 l-82 -113 241 -3 c235 -2 243 -2 293 21 28 13 67 39 86 58
l35 34 -145 3 c-80 1 -151 4 -158 7 -9 3 -5 17 17 49 17 25 31 47 31 50 0 3
-53 6 -118 6 l-118 0 -82 -112z"/>
<path d="M40 840 c0 -6 71 -10 194 -10 119 0 197 4 201 10 4 7 -63 10 -194 10
-127 0 -201 -4 -201 -10z"/>
<path d="M1122 813 c-16 -21 -36 -49 -45 -63 l-16 -25 125 3 124 3 40 54 c22
30 40 57 40 60 0 3 -54 5 -119 5 l-119 0 -30 -37z"/>
<path d="M1473 798 c-22 -29 -42 -57 -45 -63 -4 -7 37 -9 118 -7 l124 3 45 60
46 59 -124 0 -125 0 -39 -52z"/>
<path d="M1826 828 c-22 -32 -20 -64 6 -82 19 -13 61 -16 255 -16 l232 0 46
60 46 60 -285 0 c-283 0 -285 0 -300 -22z"/>
<path d="M2450 840 c0 -6 60 -10 160 -10 100 0 160 4 160 10 0 6 -60 10 -160
10 -100 0 -160 -4 -160 -10z"/>
<path d="M40 790 c0 -14 357 -14 365 0 4 7 -58 10 -179 10 -117 0 -186 -4
-186 -10z"/>
<path d="M2415 790 c-4 -7 57 -10 174 -10 114 0 181 4 181 10 0 6 -65 10 -174
10 -106 0 -177 -4 -181 -10z"/>
<path d="M40 740 c0 -6 60 -10 159 -10 96 0 162 4 166 10 4 7 -52 10 -159 10
-104 0 -166 -4 -166 -10z"/>
<path d="M2377 743 c-4 -3 -7 -9 -7 -12 0 -3 90 -5 200 -3 119 2 200 7 200 12
0 11 -383 14 -393 3z"/>
</g>
</svg>
