<?xml version="1.0" standalone="no"?>
<!DOCTYPE svg PUBLIC "-//W3C//DTD SVG 20010904//EN"
 "http://www.w3.org/TR/2001/REC-SVG-20010904/DTD/svg10.dtd">
<svg version="1.0" xmlns="http://www.w3.org/2000/svg"
 width="176.000000pt" height="50.000000pt" viewBox="0 0 176.000000 50.000000"
 preserveAspectRatio="xMidYMid meet">

<g transform="translate(0.000000,50.000000) scale(0.100000,-0.100000)"
fill="#000000" stroke="none">
<path d="M930 265 l0 -225 120 0 120 0 0 40 0 40 -75 0 -75 0 0 55 0 55 78 0
77 0 -3 46 -4 45 -62 -1 c-33 -1 -67 -1 -73 -1 -8 1 -13 16 -13 41 l0 40 75 0
75 0 0 45 0 45 -120 0 -120 0 0 -225z"/>
<path d="M1228 283 c17 -21 42 -49 56 -62 14 -14 26 -32 26 -42 0 -10 -25 -45
-56 -78 l-56 -61 60 0 c55 0 63 3 85 30 32 37 42 37 74 0 22 -27 30 -30 85
-30 l60 0 -56 62 c-31 34 -56 68 -56 76 0 7 25 42 56 75 l56 62 -54 3 c-50 3
-55 1 -86 -32 -18 -20 -35 -36 -38 -36 -4 0 -21 16 -40 35 -30 32 -38 35 -89
35 l-57 0 30 -37z"/>
</g>
</svg>
