<svg width="117" height="28" viewBox="0 0 117 28" fill="none" xmlns="http://www.w3.org/2000/svg">
<path d="M32.5585 7.64442V8.06148C32.5585 8.51645 32.5585 8.73236 32.5585 9.1989C32.5585 9.66544 32.5585 9.79331 32.5585 10.5638H32.5965C33.0514 9.55277 33.8097 8.74393 34.8713 8.13731C35.9582 7.5054 37.2725 7.18945 38.8144 7.18945C40.0276 7.18945 41.1145 7.39166 42.075 7.79608C43.0355 8.17522 43.819 8.84504 44.4257 9.80553C45.0323 10.766 45.3356 12.0425 45.3356 13.6349V26.6015H41.0892V14.3552C41.0892 13.0914 40.7227 12.1688 39.9897 11.5875C39.282 10.9809 38.3089 10.6776 37.0703 10.6776H36.9566C36.1477 10.6776 35.4021 10.8418 34.7196 11.1704C34.0372 11.499 33.4938 11.9793 33.0893 12.6112C32.6849 13.2178 32.4827 13.9508 32.4827 14.8102V26.6015H28.2363V7.64442H32.5585Z" fill="#121212"/>
<path d="M12.7249 0C15.3455 0 17.6149 0.562093 19.5331 1.68628C21.4513 2.81046 22.9237 4.39217 23.9503 6.43139C24.9769 8.47061 25.4902 10.8236 25.4902 13.4902C25.4902 16.183 24.9769 18.5621 23.9503 20.6275C22.9237 22.6667 21.4513 24.2484 19.5331 25.3726C17.6419 26.4968 15.3725 27.0589 12.7249 27.0589C10.1042 27.0589 7.83484 26.4968 5.91666 25.3726C3.99847 24.2484 2.52606 22.6667 1.49943 20.6275C0.499809 18.5621 0 16.1961 0 13.5294C0 10.8366 0.513317 8.47061 1.53995 6.43139C2.56659 4.39217 4.02549 2.81046 5.91666 1.68628C7.83484 0.562093 10.1042 0 12.7249 0ZM12.9275 23.3726C14.5755 23.3726 15.9804 22.9674 17.1421 22.1569C18.3038 21.3465 19.1819 20.2092 19.7762 18.7451C20.3976 17.2549 20.7083 15.5164 20.7083 13.5294C20.7083 11.5425 20.3976 9.81702 19.7762 8.35296C19.1819 6.86276 18.3038 5.71243 17.1421 4.90197C15.9804 4.09151 14.589 3.68628 12.968 3.68628H12.6033C10.9823 3.68628 9.57742 4.09151 8.38868 4.90197C7.19995 5.71243 6.29489 6.86276 5.67351 8.35296C5.07914 9.81702 4.78195 11.5425 4.78195 13.5294C4.78195 15.5164 5.07914 17.2549 5.67351 18.7451C6.29489 20.2092 7.18644 21.3465 8.34816 22.1569C9.53689 22.9674 10.9418 23.3726 12.5628 23.3726H12.9275Z" fill="#121212"/>
<path d="M82.0403 7.25464C84.6691 7.25464 86.6406 7.76016 87.9549 8.7712C89.2946 9.75697 89.9644 11.3999 89.9644 13.7V21.8895C89.9644 22.4456 90.0149 22.8121 90.1161 22.989C90.2424 23.1659 90.5457 23.2544 91.026 23.2544C91.3293 23.2544 91.6349 23.2544 91.898 23.2544V26.6576C90.916 26.6576 90.0655 26.6576 89.3578 26.6576C88.2962 26.6576 87.5253 26.4428 87.045 26.0131C86.59 25.5581 86.3408 25.0981 86.4005 24.3918C86.4005 24.2402 86.4005 24.1138 86.4005 24.0127C86.4257 23.8863 86.451 23.7473 86.4763 23.5956L86.297 23.5774C85.6651 24.7401 84.5048 25.5419 83.2915 26.1738C82.0783 26.8057 80.7639 27.1216 79.3484 27.1216C78.5396 27.1216 77.7813 27.0079 77.0736 26.7804C76.3659 26.5782 75.734 26.2749 75.1779 25.8705C74.4954 25.365 73.9646 24.7457 73.5855 24.0127C73.2316 23.2797 73.0547 22.4582 73.0547 21.5483C73.0547 19.6273 73.7877 18.1486 75.2537 17.1123C75.7845 16.7584 76.4038 16.4678 77.1115 16.2403C77.8445 16.0128 78.7292 15.8106 79.7655 15.6337L81.5095 15.3683C82.4953 15.2166 83.2789 15.0523 83.8602 14.8754C84.4668 14.6732 84.9218 14.4204 85.2251 14.1171C85.5537 13.7885 85.718 13.3588 85.718 12.828C85.718 12.0697 85.3894 11.4757 84.7322 11.0461C84.0751 10.6164 83.1778 10.4015 82.0403 10.4015C80.8524 10.4015 79.8919 10.7175 79.1589 11.3494C78.4259 11.956 78.0214 12.8154 77.9456 13.9275H73.6613C73.7119 11.8549 74.4828 10.2246 75.9741 9.0366C77.4906 7.84863 79.5127 7.25464 82.0403 7.25464ZM85.8318 16.3161C85.5032 16.7711 85.0229 17.1629 84.391 17.4915C83.7591 17.7948 83.064 18.0223 82.3057 18.1739L80.7133 18.5151C79.6265 18.7173 78.805 19.0459 78.2489 19.5009C77.7181 19.9306 77.4527 20.5751 77.4527 21.4345C77.4527 22.2181 77.7434 22.8247 78.3248 23.2544C78.9314 23.6841 79.6897 23.8989 80.5996 23.8989C81.459 23.8989 82.2931 23.7094 83.1019 23.3302C83.9108 22.9511 84.5679 22.3697 85.0735 21.5862C85.579 20.8026 85.8318 19.8548 85.8318 18.7426V16.3161Z" fill="#121212"/>
<path d="M110.655 19.5388C110.377 21.8137 109.454 23.6462 107.887 25.0364C106.32 26.4266 104.272 27.1216 101.745 27.1216C99.849 27.1216 98.2061 26.7172 96.8159 25.9084C95.4257 25.0743 94.3515 23.9116 93.5932 22.4203C92.8349 20.9037 92.4558 19.1344 92.4558 17.1123C92.4558 15.1155 92.8349 13.3841 93.5932 11.9181C94.3515 10.4268 95.4257 9.27673 96.8159 8.46789C98.2314 7.65906 99.8743 7.25464 101.745 7.25464C103.261 7.25464 104.639 7.52004 105.877 8.05084C107.116 8.55636 108.14 9.35255 108.948 10.4394C109.783 11.501 110.339 12.828 110.617 14.4204H106.181C105.953 13.283 105.498 12.3604 104.816 11.6527C104.133 10.9449 103.198 10.5911 102.01 10.5911H101.707C100.645 10.5911 99.7479 10.8818 99.0149 11.4631C98.2819 12.0192 97.7385 12.7901 97.3846 13.7759C97.0307 14.7616 96.8538 15.8738 96.8538 17.1123C96.8538 19.0333 97.2582 20.6257 98.0671 21.8895C98.9012 23.1533 100.114 23.7852 101.707 23.7852H102.01C103.274 23.7852 104.247 23.3934 104.93 22.6099C105.637 21.801 106.08 20.7773 106.257 19.5388H110.655Z" fill="#121212"/>
<path d="M54.7715 0H64.5754V4.18302H54.7715V0Z" fill="#CC2027"/>
<path fill-rule="evenodd" clip-rule="evenodd" d="M48.4941 0H41.3074V4.12592H48.4941C48.7459 4.12342 48.9957 4.17035 49.2293 4.2641C49.4625 4.35784 49.6749 4.49657 49.8544 4.67233C50.0339 4.84838 50.1771 5.05792 50.2758 5.28909C50.3735 5.52043 50.4248 5.7687 50.4269 6.01979V26.6667H54.7715V6.2702C54.7715 2.69107 52.0779 0 48.4941 0Z" fill="#121212"/>
<path d="M71.7101 12.1837C71.6848 12.1837 71.6595 12.1837 71.6342 12.1837C71.6342 12.1837 71.6216 12.171 71.5963 12.1457C71.293 12.0952 70.9897 12.0573 70.6864 12.032C70.4083 12.0067 70.0924 11.9941 69.7385 11.9941C68.3483 11.9941 67.173 12.3732 66.2125 13.1315C65.252 13.8898 64.7718 15.0525 64.7718 16.6196V26.6669H60.5254V7.70979H64.6959V8.46807C64.6959 8.94832 64.6959 9.29745 64.6959 9.83298C64.6959 10.3685 64.6959 10.9008 64.6959 11.4254H64.7339C65.2899 10.0099 66.0609 9.03678 67.0466 8.50599C68.0577 7.94991 69.3594 7.67188 70.9518 7.67188C71.0782 7.67188 71.2045 7.67188 71.3309 7.67188C71.4826 7.67188 71.6216 7.67188 71.748 7.67188L71.7101 12.1837Z" fill="#121212"/>
<path d="M112.42 22.6297C111.893 23.1351 111.635 23.748 111.635 24.4792C111.635 25.2104 111.893 25.8233 112.42 26.318C112.925 26.8233 113.56 27.0707 114.323 27.0707C115.076 27.0707 115.71 26.8233 116.226 26.318C116.742 25.8126 117.001 25.1996 117.001 24.4792C117.001 23.748 116.742 23.1351 116.226 22.6297C115.71 22.135 115.076 21.877 114.323 21.877C113.56 21.877 112.925 22.135 112.42 22.6297ZM114.323 26.533C113.71 26.533 113.205 26.3395 112.818 25.9416C112.409 25.5437 112.205 25.0599 112.205 24.4792C112.205 23.8985 112.409 23.4039 112.818 22.9953C113.205 22.6082 113.71 22.4039 114.323 22.4039C114.925 22.4039 115.42 22.6082 115.828 22.9953C116.226 23.4039 116.431 23.8985 116.431 24.4792C116.431 25.0599 116.226 25.5437 115.828 25.9416C115.42 26.3395 114.925 26.533 114.323 26.533ZM115.377 25.0276C115.355 24.7588 115.248 24.576 115.054 24.4899C115.312 24.3824 115.452 24.1673 115.452 23.8555C115.452 23.6082 115.355 23.4146 115.183 23.2748C115.011 23.1458 114.775 23.0705 114.474 23.0705H113.28V25.8126H113.818V24.748H114.484C114.613 24.748 114.699 24.7803 114.753 24.834C114.796 24.8878 114.828 24.9846 114.85 25.1351L114.871 25.4147C114.871 25.5975 114.914 25.7265 114.979 25.8126H115.538C115.452 25.705 115.409 25.576 115.409 25.4147L115.377 25.0276ZM113.818 23.5544H114.452C114.742 23.5544 114.893 23.6835 114.893 23.92C114.893 24.1673 114.753 24.2856 114.484 24.2856H113.818V23.5544Z" fill="#121212"/>
</svg>
