<svg xmlns="http://www.w3.org/2000/svg" width="65" height="76.009" viewBox="0 0 65 76.009"><g data-name="Group 1544"><path data-name="Path 2202" d="M32.5 76.014C29.23 74.608 13.87 67.9 8.844 63.838 3.058 59.158 0 52.45 0 44.438V7.304C9.235 2.39 19.867.004 32.5.004s23.265 2.39 32.5 7.3v37.133c0 8.01-3.058 14.716-8.844 19.4C51.13 67.897 35.77 74.603 32.5 76.014z" fill="#1a0000"/><path data-name="Path 2203" d="M60.93 8.812c-3.866-.354-7.882-.588-11.973-.588-15.173 0-31.44 3.218-44.888 15.387v20.8c0 6.776 2.538 12.433 7.363 16.312C15.693 64.147 28.803 70 32.5 71.61c3.65-1.587 16.726-7.367 21.062-10.888 4.855-3.947 7.37-9.473 7.37-16.31V8.81M6.85 42.245v-16.89h5.442v17.13c0 1.524.374 3.78 2.87 3.78a4.61 4.61 0 0 0 2.578-.656V25.356h5.438v23.312a14.634 14.634 0 0 1-8.206 2.158c-5.39 0-8.123-2.886-8.123-8.58m24.572 19.5h-5.448V26.722a13.29 13.29 0 0 1 7.342-1.91c6.5 0 10.074 4.866 10.074 12.7 0 7.85-3.47 13.222-9.516 13.222a8.744 8.744 0 0 1-2.452-.305zm0-15.708a5.24 5.24 0 0 0 1.77.318c3.135 0 4.632-2.838 4.632-8.713 0-6.02-1.31-8.51-4.47-8.51a4.8 4.8 0 0 0-1.93.387zm13.2-14.223c-.023-4.343 3.725-6.9 7.308-7a9.414 9.414 0 0 1 5.98 1.74v4.675a7.336 7.336 0 0 0-4.88-2.21c-1.543-.013-3.15.657-3.2 2.568-.052 1.956 1.552 2.73 3.584 3.9 4.55 2.64 5.43 5.01 5.325 8.145-.1 3.436-2.5 7.19-7.887 7.19a12.044 12.044 0 0 1-5.99-1.667V44.21a8.73 8.73 0 0 0 5.205 2.186c2 .01 3.313-1.12 3.266-2.994-.04-1.687-1.007-2.6-3.4-3.992-4.492-2.6-5.3-4.738-5.307-7.6M9.612 62.91c-5.51-4.454-8.42-10.854-8.42-18.5V8.047c8.7-4.55 19.23-6.855 31.308-6.855s22.61 2.305 31.308 6.855V44.41c0 7.65-2.91 14.05-8.418 18.5-5.04 4.076-21.05 11.007-22.89 11.8-1.838-.79-17.85-7.72-22.89-11.796zm42.875 7.622v3.156h.577v-1.314h.082l.87 1.317h.7l-.963-1.39a.843.843 0 0 0 .708-.837c0-.448-.28-.928-1.063-.928zm.84.46c.492 0 .556.24.556.445 0 .3-.13.5-.747.5h-.07v-.94zm2.26 1.127a2.166 2.166 0 1 1-2.168-2.142 2.15 2.15 0 0 1 2.167 2.14m-2.17-2.6a2.594 2.594 0 1 0 2.632 2.6 2.62 2.62 0 0 0-2.633-2.6" fill="#fcae00"/></g></svg>